<?xml version="1.0"?>
<svg xmlns="http://www.w3.org/2000/svg" id="pizza-food-store-shop-restaurant" viewBox="0 0 64 64" width="25" height="25"><rect x="10" y="47" width="2" height="4"/><path d="M61,16a1,1,0,0,0,1-1V7a1,1,0,0,0-1-1V4a2.006,2.006,0,0,0-2-2H5A2.006,2.006,0,0,0,3,4V6A1,1,0,0,0,2,7v8a1,1,0,0,0,1,1V60H2v2H62V60H61ZM5,4H59V6H5ZM19,60H9V40H19Zm0-22H9V37H19Zm0-3H9V34H19ZM59,60H21V33a1,1,0,0,0-1-1H8a1,1,0,0,0-1,1V60H5V24.97A4.924,4.924,0,0,0,8,26a4.994,4.994,0,0,0,4-2.03,4.956,4.956,0,0,0,8,0,4.956,4.956,0,0,0,8,0,4.956,4.956,0,0,0,8,0,4.956,4.956,0,0,0,8,0,4.956,4.956,0,0,0,8,0A4.994,4.994,0,0,0,56,26a4.924,4.924,0,0,0,3-1.03ZM5,21V16h6v5a3,3,0,0,1-6,0Zm8,0V16h6v5a3,3,0,0,1-6,0Zm8,0V16h6v5a3,3,0,0,1-6,0Zm8,0V16h6v5a3,3,0,0,1-6,0Zm8,0V16h6v5a3,3,0,0,1-6,0Zm8,0V16h6v5a3,3,0,0,1-6,0Zm14,0a3,3,0,0,1-6,0V16h6Zm1-7H4V8H60Z"/><path d="M56,28H24a1,1,0,0,0-1,1V57a1,1,0,0,0,1,1H56a1,1,0,0,0,1-1V29A1,1,0,0,0,56,28ZM55,56H25V30H55Z"/><path d="M40,55A11.994,11.994,0,0,0,52,43a1,1,0,0,0-1-1H44.883l4.868-1.771a.906.906,0,0,0,.112-.035l2.809-1.029a1,1,0,0,0,.6-1.283,11.955,11.955,0,0,0-6.2-6.764.993.993,0,0,0-.764-.033,1,1,0,0,0-.565.517L41.1,41.562a.969.969,0,0,0-.083.438H41V32a1,1,0,0,0-1-1,12,12,0,1,0,0,24Zm8.934-11h1.017a9.9,9.9,0,0,1-2.206,5.331l-.717-.717A9.052,9.052,0,0,0,48.934,44ZM47.109,33.4A9.927,9.927,0,0,1,51,37.648l-.946.347a8.944,8.944,0,0,0-3.371-3.681Zm-2.774,5.95,1.5-3.211A6.956,6.956,0,0,1,48.16,38.68l-4.231,1.539ZM46.928,44A7.054,7.054,0,0,1,45.6,47.188L42.414,44ZM41,45.414,44.188,48.6A6.959,6.959,0,0,1,41,49.921Zm0,6.526a8.943,8.943,0,0,0,4.616-1.91l.712.712A9.919,9.919,0,0,1,41,52.951Zm-2,1.011a9.911,9.911,0,0,1-5.328-2.209l.709-.708A8.951,8.951,0,0,0,39,51.938ZM33.08,44h4.506l-3.194,3.193A6.956,6.956,0,0,1,33.08,44ZM39,49.92a6.962,6.962,0,0,1-3.194-1.312L39,45.414Zm0-9.334L35.813,37.4A6.96,6.96,0,0,1,39,36.07Zm0-7.537V34.06a8.943,8.943,0,0,0-4.616,1.91l-.712-.712A9.919,9.919,0,0,1,39,33.049Zm-4.6,5.763L37.586,42H33.079A6.955,6.955,0,0,1,34.4,38.812Zm-2.142-2.143.714.714A8.94,8.94,0,0,0,31.06,42H30.049A9.909,9.909,0,0,1,32.255,36.669ZM31.062,44a8.938,8.938,0,0,0,1.9,4.619l-.712.712A9.909,9.909,0,0,1,30.049,44Z"/></svg>
