<svg id="Capa_1" enable-background="new 0 0 512 512" height="512" viewBox="0 0 512 512" width="512" xmlns="http://www.w3.org/2000/svg"><g><path d="m111.184 304.272c-13.33-13.33-13.33-34.942 0-48.272l18.308-18.308c3.219-3.219 3.219-8.437 0-11.655l-12.274-12.274c-16.662-16.662-16.662-43.678 0-60.34l66.374-66.374c26.66-26.66 69.884-26.66 96.544 0l24.136 24.136 96.544 96.544 66.033 66.033c6.498 6.498 7.096 17.083.911 23.88-6.604 7.257-17.847 7.456-24.706.597l-11.727-11.727c-6.498-6.498-17.083-7.096-23.88-.911-7.257 6.604-7.456 17.847-.597 24.706l41.897 41.897c6.498 6.498 7.096 17.083.91 23.88-6.604 7.257-17.847 7.456-24.706.597l-36.204-36.204c-6.665-6.665-17.471-6.665-24.136 0l-84.476 84.476c-13.33 13.33-34.942 13.33-48.272 0l-24.136-24.136z" fill="#f9efda"/><g fill="#f4ddb1"><path d="m406.849 310.306c-6.858-6.858-6.659-18.102.597-24.706 6.745-6.138 17.216-5.589 23.726.771l-11.7-11.7c-6.498-6.498-17.083-7.096-23.88-.91-7.257 6.604-7.456 17.847-.597 24.706l41.897 41.897c6.498 6.498 7.096 17.083.91 23.88-6.56 7.208-17.694 7.445-24.564.725l11.713 11.713c6.859 6.858 18.102 6.659 24.706-.597 6.185-6.797 5.588-17.382-.91-23.88z"/><path d="m376.893 328.635c-6.665-6.665-17.471-6.665-24.136 0l-96.316 96.316c-3.6 3.6-7.807 6.219-12.289 7.874 12.113 4.474 26.253 1.856 35.983-7.874l84.476-84.476c6.618-6.618 17.315-6.657 23.991-.132z"/><path d="m466.848 273.761-66.033-66.033-96.544-96.544-24.136-24.136c-16.356-16.356-38.944-22.659-60.119-18.946 13.34 2.339 26.121 8.642 36.425 18.946l24.136 24.136 96.544 96.544 66.033 66.033c6.498 6.498 7.096 17.083.91 23.88-.276.303-.535.561-.786.8 6.876 6.639 17.946 6.38 24.48-.8 6.186-6.797 5.588-17.382-.91-23.88z"/></g><path d="m72.223 403.573-12.871 18.019c-11.36 15.904-26.438 28.788-43.92 37.529-12.423 6.212-18.389 20.613-13.996 33.79 2.778 8.334 9.318 14.874 17.652 17.652 13.177 4.392 27.579-1.573 33.79-13.996v-.001c8.741-17.481 21.624-32.559 37.528-43.919l18.019-12.871 331.349-331.349 12.871-18.019c11.36-15.904 26.438-28.788 43.92-37.529 12.423-6.212 18.389-20.613 13.996-33.79-2.778-8.334-9.318-14.874-17.652-17.652-13.177-4.392-27.578 1.573-33.79 13.996v.001c-8.741 17.481-21.624 32.559-37.528 43.919l-18.019 12.871z" fill="#a06a5a"/><path d="m510.563 19.089c-2.778-8.334-9.318-14.874-17.652-17.652-7.018-2.339-14.382-1.74-20.672 1.207 6.881 3.225 12.198 9.147 14.631 16.445 4.392 13.177-1.573 27.578-13.996 33.79-17.481 8.741-32.559 21.625-43.92 37.529l-12.871 18.019-331.35 331.35-18.019 12.871c-15.904 11.36-28.788 26.438-37.528 43.919v.001c-2.903 5.807-7.597 10.202-13.118 12.789.977.458 1.985.862 3.022 1.207 13.177 4.392 27.578-1.573 33.79-13.996v-.001c8.741-17.481 21.624-32.559 37.528-43.919l18.019-12.871 331.349-331.349 12.871-18.019c11.36-15.905 26.438-28.789 43.92-37.529 12.423-6.213 18.389-20.614 13.996-33.791z" fill="#845252"/><path d="m72.017 391.711c-3.218 3.219-3.218 8.437 0 11.655l36.617 36.617c3.218 3.219 8.437 3.219 11.655 0l319.694-319.694c3.219-3.218 3.219-8.437 0-11.655l-36.617-36.617c-3.219-3.218-8.437-3.218-11.655 0z" fill="#f6e266"/><path d="m439.983 108.634-36.617-36.617c-3.219-3.219-8.437-3.219-11.655 0l-6.02 6.019 30.597 30.597c3.219 3.219 3.219 8.437 0 11.655l-313.674 313.675 6.02 6.019c3.218 3.219 8.437 3.219 11.655 0l319.694-319.694c3.218-3.218 3.218-8.436 0-11.654z" fill="#ffc250"/><g><path d="m340.476 324.066c-1.977 0-3.955-.755-5.463-2.263l-144.816-144.815c-3.018-3.018-3.018-7.909 0-10.928 3.017-3.016 7.909-3.016 10.927 0l144.815 144.816c3.018 3.018 3.018 7.909 0 10.928-1.508 1.508-3.486 2.262-5.463 2.262z" fill="#f4ddb1"/></g><g><path d="m376.68 263.726c-1.977 0-3.955-.754-5.463-2.264l-156.884-156.882c-3.018-3.018-3.018-7.909 0-10.928 3.017-3.016 7.909-3.016 10.927 0l156.883 156.884c3.018 3.017 3.017 7.909 0 10.927-1.509 1.509-3.486 2.263-5.463 2.263z" fill="#f4ddb1"/></g><path d="m157.076 440.154-85.23-85.23c-3.124-3.124-3.124-8.19 0-11.314l271.764-271.764c3.124-3.124 8.19-3.124 11.314 0l85.23 85.23c3.124 3.124 3.124 8.189 0 11.314l-271.764 271.764c-3.124 3.124-8.19 3.124-11.314 0z" fill="#a06a5a"/><path d="m439.983 156.905-84.888-84.888c-3.218-3.219-8.437-3.219-11.655 0l-6.02 6.019 78.869 78.869c3.219 3.218 3.219 8.437 0 11.655l-265.403 265.403 6.02 6.019c3.218 3.219 8.437 3.219 11.655 0l271.422-271.422c3.218-3.218 3.218-8.436 0-11.655z" fill="#845252"/><path d="m319.667 95.789 96.544 96.544 10.927-10.927v-.001l-96.543-96.543z" fill="#70393c"/><path d="m95.79 319.668c-.001 0-.001 0 0 0l-10.928 10.926c1.512 1.513 96.52 96.521 96.543 96.544l10.927-10.927c-.001-.001-95.048-95.048-96.542-96.543z" fill="#70393c"/><path d="m129.493 226.037c3.066 3.066 3.204 7.942.43 11.18l29.51-29.511c3.018-3.018 3.018-7.909 0-10.928-3.017-3.016-7.909-3.016-10.926 0l-24.136 24.136z" fill="#f4ddb1"/></g></svg>